# xmcd
#
# Track frame offsets: 
#        150
#        13985
#        31087
#        47415
#        64767
#        79629
#        95285
#
# Disc length: 1537 seconds
#
# Revision: 0
# Processed by: cddbd v1.5.2PL0 Copyright (c) Steve Scherf et al.
# Submitted via: ExactAudioCopy v1.3
#
DISCID=4805ff07
DTITLE=Josh Grider - The Gettin' There
DYEAR=2012
DGENRE=Country
TTITLE0=Lone Star Highway
TTITLE1=Smallest Town On Earth
TTITLE2=Summer And Sixteen
TTITLE3=The Gettin' There
TTITLE4=Good Old Day
TTITLE5=Dyin' For A Break
TTITLE6=Price Of The Dream
EXTD=
EXTT0=
EXTT1=
EXTT2=
EXTT3=
EXTT4=
EXTT5=
EXTT6=
PLAYORDER=
